<?xml version="1.0" encoding="UTF-8" standalone="no"?>
<!-- Generator: Adobe Illustrator 13.0.0, SVG Export Plug-In . SVG Version: 6.00 Build 14948)  -->

<svg
   xmlns:dc="http://purl.org/dc/elements/1.1/"
   xmlns:cc="http://creativecommons.org/ns#"
   xmlns:rdf="http://www.w3.org/1999/02/22-rdf-syntax-ns#"
   xmlns:svg="http://www.w3.org/2000/svg"
   xmlns="http://www.w3.org/2000/svg"
   xmlns:sodipodi="http://sodipodi.sourceforge.net/DTD/sodipodi-0.dtd"
   xmlns:inkscape="http://www.inkscape.org/namespaces/inkscape"
   version="1.1"
   id="Layer_1"
   x="0px"
   y="0px"
   width="379.539px"
   height="304.487px"
   viewBox="0 0 379.539 304.487"
   enable-background="new 0 0 379.539 304.487"
   xml:space="preserve"
   inkscape:version="0.48.4 r9939"
   sodipodi:docname="bgjug-logo.svg"><metadata
     id="metadata3081"><rdf:RDF><cc:Work
         rdf:about=""><dc:format>image/svg+xml</dc:format><dc:type
           rdf:resource="http://purl.org/dc/dcmitype/StillImage" /><dc:title /></cc:Work></rdf:RDF></metadata><defs
     id="defs3079" /><sodipodi:namedview
     pagecolor="#ffffff"
     bordercolor="#666666"
     borderopacity="1"
     objecttolerance="10"
     gridtolerance="10"
     guidetolerance="10"
     inkscape:pageopacity="0"
     inkscape:pageshadow="2"
     inkscape:window-width="1920"
     inkscape:window-height="1056"
     id="namedview3077"
     showgrid="false"
     inkscape:zoom="2.1922407"
     inkscape:cx="172.23001"
     inkscape:cy="134.99145"
     inkscape:window-x="0"
     inkscape:window-y="24"
     inkscape:window-maximized="1"
     inkscape:current-layer="Layer_1" /><path
     fill-rule="evenodd"
     clip-rule="evenodd"
     fill="#FFFFFF"
     d="M206.58,9.792c-39.24,46.512-75.6,95.832-96.984,153.432  c-10.656,28.872-23.184,73.728-25.056,104.4c-0.864,13.032-2.304,32.112,16.344,29.016c4.608-0.792,10.152-4.824,13.896-7.56  c10.656-7.632,20.592-13.464,32.688-18.864c14.112-6.192,31.104-11.088,46.44-10.08c18,1.08,35.568,6.48,49.176,18.864  c6.624,5.976,15.264,20.088,25.2,20.088c18.216,0,20.16-54.36,20.16-66.6c0-18-5.04-36.936-10.152-54.144  C261.012,120.312,233.292,64.007,206.58,9.792z"
     id="path3054" /><path
     style="fill:none;stroke:#231f20;stroke-width:1px;stroke-linecap:butt;stroke-linejoin:miter;stroke-opacity:1;opacity:0"
     d="m 100.83288,207.64202 c 3.2255,-1.2902 45.64137,-20.39183 86.31923,-22.42533 53.63469,-2.68121 96.2076,31.61939 96.2076,31.61939"
     id="path3947-9"
     inkscape:connector-curvature="0"
     sodipodi:nodetypes="csc" /><path
     fill-rule="evenodd"
     clip-rule="evenodd"
     d="M283.908,196.199c5.904-5.904,11.376-10.224,11.376-18.648  c11.736-13.392,22.32-26.496,34.632-39.384c1.584,2.736,11.736,2.592,17.64-1.224c0.36-0.216,0.792,0,1.224,0  c5.112,0,11.592,4.968,16.416,3.744c4.392-1.08,6.552-3.312,7.632-7.632c0.432-1.8-1.728-2.304-2.664-3.744  c1.656-1.656,6.48,1.008,8.856-6.264c2.52-7.488-4.824-11.232-7.488-12.6c1.872-0.072,5.4-5.76,5.04-8.784  c-0.216-1.512-3.6-5.328-5.04-6.192c-1.152-0.72-2.52-1.152-3.888-1.44c-4.608-0.792-10.296,0.36-15.12-1.224  c-0.576-0.144-1.224-0.648-1.224-1.224c-0.072-3.96,2.448-10.512,1.224-13.752c-2.736-7.704-4.176-11.664-12.456-13.896  c-4.536-1.224-7.704,0.288-11.376,2.52c-0.504,0.288-1.008,0.72-1.296,1.224c-0.072,0.216-0.072,2.376,0,2.52  c0.288,0.504,1.08,0.72,1.296,1.224c2.592,6.624,6.048,23.328,3.744,30.24c-1.584,4.68-7.416,9.648-8.784,16.416  c-1.224,6.048-2.808,13.392,0,14.976l-29.016,37.656c-4.68-6.984-12.168-6.048-20.232-6.048L283.908,196.199z"
     id="path3056" /><path
     fill-rule="evenodd"
     clip-rule="evenodd"
     d="M113.484,149.471c-14.616-2.448-13.752-0.576-17.64,5.04  c-13.176-0.288-24.12,1.368-36.576,7.488c-8.28,4.032-7.344,19.296-8.784,26.352c-0.072,0.576-0.648,1.296-1.224,1.296  c-2.736-2.88-6.84,1.152-6.264,5.112c-5.688,0.432-12.168,7.056-12.6,10.008c-1.296,8.496-20.088-6.048-26.496-5.04  c-2.16,0.36-3.456,4.464-3.744,6.264c-0.432,2.592-0.072,6.12,2.448,7.632c2.952,1.728,23.472,3.312,24.048,4.968  c0.504,1.584-8.928,4.464-10.152,5.04c-7.776,3.456-8.424,3.96-11.376,11.376c-3.096,7.632,8.208,8.208,13.896,7.488  c5.112-0.648,12.24-11.952,17.64-8.784c5.184,3.168,1.728,12.96,1.224,17.64c-0.648,6.048-1.944,12.528,5.112,12.528  c7.344,0,8.136-7.056,8.784-13.752c0.216-2.52-0.216-5.112,0-7.632c0.36-4.176,3.888-16.632,10.08-15.12  c6.768,1.656,3.672,10.08,17.64,10.08c2.232,0,4.608-1.008,6.264-2.448c1.8-1.656,2.88-4.104,3.744-6.408  c0.864-2.376,1.224-4.968,1.224-7.488c0-3.024-2.376-4.968-4.968-4.968c-2.808,0-6.12,2.448-7.488,2.448  c-1.008,0-1.8-0.792-2.664-1.224c-3.816-1.872-8.28-4.608-11.232-7.632c-0.072-0.072-2.376-3.456-2.52-3.744  c4.104-1.584,1.44-12.672-2.592-12.528c-0.216-0.792-0.144-1.728,0-2.592c1.08-5.904,3.168-20.16,7.632-23.904  c6.624-5.544,20.088-8.352,28.944-10.008c0.072,5.976,6.48,8.136,11.304,10.008L113.484,149.471z"
     id="path3058" /><path
     fill-rule="evenodd"
     clip-rule="evenodd"
     d="M206.58,12.312c-46.152,46.152-75.096,93.744-98.208,154.656  c50.4-19.152,119.52-17.064,168.696,5.04C259.068,121.535,234.444,59.327,206.58,12.312z"
     id="path3060" /><radialGradient
     id="SVGID_1_"
     cx="173.5879"
     cy="130.2153"
     r="65.5234"
     gradientUnits="userSpaceOnUse"><stop
       offset="0"
       style="stop-color:#FBC8B4"
       id="stop3063" /><stop
       offset="1"
       style="stop-color:#ED1C24"
       id="stop3065" /></radialGradient><path
     style="fill:#009d75;fill-opacity:1;stroke:#000000;stroke-width:0.69320535999999999;stroke-opacity:0"
     d="m 279.40906,260.46819 c -21.0383,-20.40105 -46.87211,-35.59878 -70.2852,-41.34799 -8.86441,-2.17672 -30.40449,-2.41104 -38.98569,-0.42412 -12.8908,2.98478 -25.50149,7.51917 -39.64091,14.25353 -8.77789,4.18078 -28.31573,14.91004 -35.545767,19.52008 -2.252323,1.43613 -4.095133,2.3012 -4.095133,1.92237 0,-4.34709 8.213832,-43.89392 9.38494,-45.18533 2.25227,-2.48363 31.36016,-13.83237 46.05016,-17.9543 l 7.93156,-2.22552 3.99573,2.25767 c 9.80142,5.53802 26.14076,8.47827 37.61772,6.76928 7.43667,-1.10736 16.34265,-4.36012 21.71674,-7.93167 2.21092,-1.46934 4.64471,-2.62529 5.40844,-2.56876 2.51073,0.18582 16.8174,5.31996 24.16505,8.67192 8.78239,4.00648 22.29872,12.03485 29.80118,17.70115 4.63663,3.50189 5.65085,4.62323 6.11837,6.76459 0.67538,3.09343 0.63785,32.33406 -0.0493,38.44275 l -0.48821,4.34006 -3.09961,-3.00571 -1e-5,0 z"
     id="path3968"
     inkscape:connector-curvature="0" /><path
     fill-rule="evenodd"
     clip-rule="evenodd"
     fill="url(#SVGID_1_)"
     stroke="#231F20"
     stroke-width="9.36"
     d="M189.948,106.487  c26.352,0,48.528,18.936,48.528,43.92c0,24.84-24.336,44.352-50.616,43.776c-32.184-0.72-47.16-17.496-47.16-42.336  C140.7,126.863,163.596,106.487,189.948,106.487z"
     id="path3067" /><polyline
     fill-rule="evenodd"
     clip-rule="evenodd"
     fill="none"
     stroke="#666666"
     stroke-width="0.216"
     points="368.94,95.471   362.676,96.695 353.892,97.919 348.78,101.664 348.78,107.927 "
     id="polyline3069" /><polyline
     fill-rule="evenodd"
     clip-rule="evenodd"
     fill="none"
     stroke="#666666"
     stroke-width="0.216"
     points="371.532,110.447   358.932,110.447 350.076,112.967 347.556,116.783 350.076,121.823 "
     id="polyline3071" /><polyline
     fill-rule="evenodd"
     clip-rule="evenodd"
     fill="none"
     stroke="#666666"
     stroke-width="0.216"
     points="370.164,129.312   362.676,126.792 355.188,125.567 348.78,128.087 347.556,134.423 "
     id="polyline3073" /><path
     style="fill:#d12631;fill-opacity:1;stroke:#000000;stroke-width:0.66803502999999997;stroke-opacity:0"
     d="m 266.06033,295.91922 c -1.48455,-0.76368 -5.17064,-4.05384 -8.19134,-7.31147 -10.41267,-11.22944 -12.7146,-13.48375 -16.96,-16.60912 -15.57893,-11.46887 -38.74195,-17.58337 -58.84464,-15.53362 -13.67778,1.39464 -29.97015,6.64386 -45.34895,14.61097 -9.59952,4.97311 -14.25133,7.86534 -26.07568,16.21236 -13.753018,9.7085 -19.440605,10.10379 -21.695157,1.50779 -1.704371,-6.49827 0.180685,-35.10361 2.430045,-36.87542 2.962731,-2.33371 37.057602,-19.56195 45.996092,-23.24196 23.65333,-9.73811 42.75052,-13.55286 59.2412,-11.83364 15.20711,1.58539 27.67529,5.43641 43.31412,13.37836 13.28033,6.74422 24.47374,14.40353 37.24531,25.48589 l 5.13535,4.45612 -0.43151,3.75963 c -1.85301,16.14426 -6.79201,30.51534 -11.20564,32.60519 -2.00854,0.95106 -1.42109,1.02894 -4.6092,-0.61108 l 0,0 z"
     id="path3972"
     inkscape:connector-curvature="0" /><path
     clip-rule="evenodd"
     d="M206.58,9.792  c-39.24,46.512-75.6,95.832-96.984,153.432c-10.656,28.872-23.184,73.728-25.056,104.4c-0.864,13.032-2.304,32.112,16.344,29.016  c4.608-0.792,10.152-4.824,13.896-7.56c10.656-7.632,20.592-13.464,32.688-18.864c14.112-6.192,31.104-11.088,46.44-10.08  c18,1.08,35.568,6.48,49.176,18.864c6.624,5.976,15.264,20.088,25.2,20.088c18.216,0,20.16-54.36,20.16-66.6  c0-18-5.04-36.936-10.152-54.144C261.012,120.312,233.292,64.007,206.58,9.792z"
     id="path3075"
     stroke-width="10.8"
     stroke="#231F20"
     fill-rule="evenodd"
     fill="none" /><path
     style="fill:none;stroke:#231f20;stroke-width:1px;stroke-linecap:butt;stroke-linejoin:miter;stroke-opacity:1;opacity:0"
     d="m 89.251818,251.62854 c 3.225498,-1.2902 54.464822,-33.54203 95.142682,-35.57553 53.63469,-2.68121 99.81099,44.08537 99.81099,44.08537"
     id="path3947"
     inkscape:connector-curvature="0"
     transform="translate(-1.0367399e-6,0)"
     sodipodi:nodetypes="csc" /><g
     inkscape:groupmode="layer"
     id="layer1"
     inkscape:label="Flag" /></svg>